<svg width="192" height="192" fill="none"
    xmlns="http://www.w3.org/2000/svg">
    <circle cx="48" cy="48" r="44" fill="#3DDC84"/>
    <path fill-rule="evenodd" clip-rule="evenodd" d="M61.723 38.661l4.661-8.186a.992.992 0 00-.355-1.344.963.963 0 00-1.325.36l-4.718 8.29c-3.609-1.67-7.662-2.6-11.986-2.6-4.324 0-8.377.93-11.986 2.6l-4.718-8.29a.964.964 0 00-1.325-.36.992.992 0 00-.355 1.344l4.66 8.186C26.274 43.075 20.8 51.292 20 61h56c-.802-9.708-6.275-17.925-14.277-22.339zm-26.61 14.246c-1.286 0-2.332-1.061-2.332-2.365 0-1.305 1.046-2.366 2.332-2.366 1.285 0 2.331 1.061 2.331 2.366 0 1.304-1.046 2.365-2.331 2.365zm25.775 0c-1.286 0-2.332-1.061-2.332-2.365 0-1.305 1.046-2.366 2.332-2.366 1.286 0 2.332 1.061 2.332 2.366 0 1.304-1.046 2.365-2.332 2.365z" fill="#fff"/>
</svg>
