<?xml version="1.0" standalone="no"?><!DOCTYPE svg PUBLIC "-//W3C//DTD SVG 1.1//EN" "http://www.w3.org/Graphics/SVG/1.1/DTD/svg11.dtd"><svg t="1651939466787" class="icon" viewBox="0 0 1050 1024" version="1.1" xmlns="http://www.w3.org/2000/svg" p-id="700" xmlns:xlink="http://www.w3.org/1999/xlink" width="205.078125" height="200"><defs><style type="text/css"></style></defs><path d="M0 0m185.982906 0l678.290598 0q185.982906 0 185.982906 185.982906l0 652.034188q0 185.982906-185.982906 185.982906l-678.290598 0q-185.982906 0-185.982906-185.982906l0-652.034188q0-185.982906 185.982906-185.982906Z" fill="#00005B" p-id="701"></path><path d="M421.918632 612.649573H259.168274l-33.11371 103.060786A8.288274 8.288274 0 0 1 217.6 722.051282H135.168q-7.054222 0-4.931829-7.750017l140.909402-404.143043c1.409094-4.227282 2.818188-8.358291 4.227282-13.762735a150.514872 150.514872 0 0 0 2.818188-28.531966 4.36294 4.36294 0 0 1 4.931829-4.936205h112.022974q4.918701 0 5.636376 3.527111l159.932171 448.547009q2.109265 7.054222-4.227282 7.049846h-91.591111a6.51159 6.51159 0 0 1-7.04547-4.931829zM284.531966 525.749607h111.318427q-4.227282-14.082188-9.863658-31.704616-5.645128-17.600547-11.977299-37.691076l-12.681846-40.15918q-6.340923-20.081778-11.627214-38.750085-5.281915-18.659556-9.509197-34.172718h-0.704547a568.179966 568.179966 0 0 1-14.795487 56.36376q-9.876786 31.704615-20.081777 64.818325-10.21812 33.126838-20.077402 61.29559zM819.987692 572.534154h-138.791384a98.977915 98.977915 0 0 0 13.390769 38.815726 72.485197 72.485197 0 0 0 32.050325 26.422701 133.863932 133.863932 0 0 0 56.013675 10.979556 253.825094 253.825094 0 0 0 45.441094-4.988718 167.489641 167.489641 0 0 0 39.073914-10.187487c2.341197-1.868581 3.522735-0.700171 3.522736 3.527111v66.931966a10.432547 10.432547 0 0 1-1.059009 5.281914 10.108718 10.108718 0 0 1-3.168274 3.168274 179.173744 179.173744 0 0 1-43.651282 13.005675 309.650598 309.650598 0 0 1-62.000136 5.281914q-50.035966 0-83.84547-15.500034a149.429607 149.429607 0 0 1-54.950291-41.568273 162.776615 162.776615 0 0 1-30.295521-57.418394 226.102701 226.102701 0 0 1-9.159112-63.759316 222.067966 222.067966 0 0 1 10.922667-69.404444 181.278632 181.278632 0 0 1 32.759248-59.88212 157.380923 157.380923 0 0 1 52.841026-41.572649c20.663795-10.091214 45.091009-13.714598 73.272889-13.714599a159.004444 159.004444 0 0 1 67.986598 13.390769 119.825504 119.825504 0 0 1 46.150017 34.851009 160.23412 160.23412 0 0 1 26.068239 49.668376 177.003214 177.003214 0 0 1 8.454564 53.545573q0 15.50441-1.059008 28.18188-1.050256 12.681846-1.75918 18.318222a6.384684 6.384684 0 0 1-6.345299 5.636376q-4.222906 0-14.441025 1.059009-10.21812 1.054632-25.359317 1.409094c-10.108718 0.240684-20.786325-1.479111-32.059077-1.479111z m-138.791384-64.179419h92.291282q16.913504 0 25.013607-0.350085a24.611009 24.611009 0 0 0 10.218119-3.391453v-4.227282a56.363761 56.363761 0 0 0-2.818188-16.204582 57.558427 57.558427 0 0 0-57.063931-40.159179 61.203692 61.203692 0 0 0-58.131693 33.113709 101.918632 101.918632 0 0 0-9.509196 31.218872z" fill="#9999FF" p-id="702"></path></svg>